<?xml version="1.0" encoding="iso-8859-1"?>
<!DOCTYPE svg PUBLIC "-//W3C//DTD SVG 1.1//EN" "http://www.w3.org/Graphics/SVG/1.1/DTD/svg11.dtd">
<svg 
 version="1.1" xmlns="http://www.w3.org/2000/svg" xmlns:xlink="http://www.w3.org/1999/xlink" x="0px" y="0px" width="512px"
	 height="512px" viewBox="0 0 512 512" style="enable-background:new 0 0 512 512;" xml:space="preserve"
><g id="afcae5a789ccd549f9c6e2a2f809744b"><g></g><g fill="#ffffff"><path style="display: inline; fill-rule: evenodd; clip-rule: evenodd;" d="M511.5,206.724l-29.268-29.268l-58.535,58.533
		l-29.264-29.266l58.531-58.536L379.8,75.021l-58.536,58.535l-14.634-14.634l-29.264,29.266l29.234,29.234
		c-1.946,1.556-10.837,8.109-30.789,15.327c-21.575,7.803-43.424,1.557-43.64,1.492l-17.999-5.477l-7.161,17.394L104.58,454.928
		l-18.913,45.927l45.927-18.913l248.772-102.433l17.391-7.161l-5.477-17.998c-0.029-0.101-6.275-22.157,1.493-43.64
		c7.215-19.953,13.765-28.844,15.323-30.79l29.235,29.234l29.268-29.264l-14.634-14.634L511.5,206.724z M374.311,303.669
		c-10.363,28.657-1.83,56.702-1.83,56.702l-223.887,92.194l130.045-130.054c11.536,5.506,25.758,3.514,35.307-6.038
		c12.126-12.127,12.126-31.779,0-43.901c-12.118-12.123-31.771-12.123-43.897,0c-9.557,9.552-11.544,23.77-6.038,35.31
		L133.956,437.928l92.195-223.89c0,0,28.045,8.537,56.701-1.827c28.656-10.367,38.412-20.121,38.412-20.121l21.683,21.678
		l51.487,51.489C394.425,265.266,384.673,275.021,374.311,303.669z M85.667,138.896H0.5V96.313h85.167V11.146h42.583v85.167h85.167
		v42.583H128.25v85.167H85.667V138.896z"></path></g></g></svg>